<?xml version="1.0" encoding="utf-8"?>
<?xml-stylesheet type="text/xsl" href="rss1.xsl"?>
<rss version="2.0" xmlns:atom="http://www.w3.org/2005/Atom" xmlns:content="http://purl.org/rss/1.0/modules/content/" xmlns:dc="http://purl.org/dc/elements/1.1/" xmlns:media="http://search.yahoo.com/mrss/">
<channel>
 <title>Getty</title>
 <link>http://www.gettyimg.com/</link>
 <atom:link href="http://www.gettyimg.com/" rel="self" type="application/rss+xml" />

 
                <item>
                <title><![CDATA[【HD Live Performances】HDTV - Kylie Minogue's - Infinite Disco HDTV H264 1080i DD5.1-ilya2129]]></title>
                <link><![CDATA[https://sharemania.us/threads/kylie-minogues-infinite-disco-hdtv-h264-1080i-dd5-1-ilya2129.234825/]]></link>
                <description><![CDATA[<article>
<blockquote class="messageText SelectQuoteContainer ugc baseHtml">
<div style="text-align: center"><img src="https://i122.fastpic.org/big/2023/1228/94/2352145b4eea90331a546f6427d68994.png?r=1" class="bbCodeImage LbImage" alt="[​IMG]" data-url="https://i122.fastpic.org/big/2023/1228/94/2352145b4eea90331a546f6427d68994.png?r=1" style=""><br>
<br>
<a href="https://postimg.cc/c6CVYmp8" target="_blank" class="externalLink" rel="nofollow"><img src="https://i.postimg.cc/c6CVYmp8/vlcsnap-2023-12-28-22h37m11s086.png" class="bbCodeImage LbImage" alt="[​IMG]" data-url="https://i.postimg.cc/c6CVYmp8/vlcsnap-2023-12-28-22h37m11s086.png"></a> <a href="https://postimg.cc/kBtzY5XJ" target="_blank" class="externalLink" rel="nofollow"><img src="https://i.postimg.cc/kBtzY5XJ/vlcsnap-2023-12-28-22h37m12s532.png" class="bbCodeImage LbImage" alt="[​IMG]" data-url="https://i.postimg.cc/kBtzY5XJ/vlcsnap-2023-12-28-22h37m12s532.png"></a> <a href="https://postimg.cc/BLV7NrrP" target="_blank" class="externalLink" rel="nofollow"><img src="https://i.postimg.cc/BLV7NrrP/vlcsnap-2023-12-28-22h37m14s048.png" class="bbCodeImage LbImage" alt="[​IMG]" data-url="https://i.postimg.cc/BLV7NrrP/vlcsnap-2023-12-28-22h37m14s048.png"></a> <a href="https://postimg.cc/0zY3xHwh" target="_blank" class="externalLink" rel="nofollow"><img src="https://i.postimg.cc/0zY3xHwh/vlcsnap-2023-12-28-22h37m15s329.png" class="bbCodeImage LbImage" alt="[​IMG]" data-url="https://i.postimg.cc/0zY3xHwh/vlcsnap-2023-12-28-22h37m15s329.png"></a> <a href="https://postimg.cc/0694NdGj" target="_blank" class="externalLink" rel="nofollow"><img src="https://i.postimg.cc/0694NdGj/vlcsnap-2023-12-28-22h37m18s192.png" class="bbCodeImage LbImage" alt="[​IMG]" data-url="https://i.postimg.cc/0694NdGj/vlcsnap-2023-12-28-22h37m18s192.png"></a> <a href="https://postimg.cc/2qTKLbTw" target="_blank" class="externalLink" rel="nofollow"><img src="https://i.postimg.cc/2qTKLbTw/vlcsnap-2023-12-28-22h37m21s075.png" class="bbCodeImage LbImage" alt="[​IMG]" data-url="https://i.postimg.cc/2qTKLbTw/vlcsnap-2023-12-28-22h37m21s075.png"></a> <a href="https://postimg.cc/wyvbXqGd" target="_blank" class="externalLink" rel="nofollow"><img src="https://i.postimg.cc/wyvbXqGd/vlcsnap-2023-12-28-22h37m24s258.png" class="bbCodeImage LbImage" alt="[​IMG]" data-url="https://i.postimg.cc/wyvbXqGd/vlcsnap-2023-12-28-22h37m24s258.png"></a> <br>
<br>
Magic - Intro<br>
Come Into My World<br>
I Love It<br>
In Your Eyes<br>
Light Years<br>
Supernova<br>
I Should Be So Lucky<br>
Dance Floor Darling<br>
All The Lovers<br>
Say Something<br>
Real Groove<br>
Slow<br>
Monday Blues<br>
Where Does The DJ Go?<br>
Love At First Sight<br>
Last Chance<br>
Magic<br>
​</div><br>
<div class="bbCodeBlock bbCodeCode">
<div class="type">Code:</div>
<pre>General
Unique ID                                : 145588578535614385440511437532008712518 (0x6D87571DA7B6158F7250383AC4AE8946)
Complete name                            : F:\Kylie Minogue's Infinite Disco HDTV H264 1080i DD5.1-ilya2129.mkv
Format                                   : Matroska
Format version                           : Version 4
File size                                : 1.87 GiB
Duration                                 : 50 min 36 s
Overall bit rate                         : 5 286 kb/s
Frame rate                               : 25.027 FPS
Encoded date                             : 2023-12-27 08:03:07 UTC
Writing application                      : mkvmerge v72.0.0 ('Minuano (Six-eight)') 64-bit
Writing library                          : libebml v1.4.4 + libmatroska v1.7.1

Video
ID                                       : 1
Format                                   : AVC
Format/Info                              : Advanced Video Codec
Format profile                           : High@L4
Format settings                          : CABAC / 3 Ref Frames
Format settings, CABAC                   : Yes
Format settings, Reference frames        : 3 frames
Codec ID                                 : V_MPEG4/ISO/AVC
Duration                                 : 50 min 36 s
Bit rate                                 : 4 900 kb/s
Width                                    : 1 920 pixels
Height                                   : 1 080 pixels
Display aspect ratio                     : 16:9
Frame rate mode                          : Variable
Frame rate                               : 25.027 FPS
Original frame rate                      : 25.000 FPS
Color space                              : YUV
Chroma subsampling                       : 4:2:0
Bit depth                                : 8 bits
Scan type                                : MBAFF
Bits/(Pixel*Frame)                       : 0.094
Stream size                              : 1.73 GiB (93%)
Default                                  : Yes
Forced                                   : No
Color range                              : Limited
Color primaries                          : BT.709
Transfer characteristics                 : BT.709
Matrix coefficients                      : BT.709

Audio
ID                                       : 2
Format                                   : AC-3
Format/Info                              : Audio Coding 3
Commercial name                          : Dolby Digital
Codec ID                                 : A_AC3
Duration                                 : 50 min 36 s
Bit rate mode                            : Constant
Bit rate                                 : 384 kb/s
Channel(s)                               : 6 channels
Channel layout                           : L R C LFE Ls Rs
Sampling rate                            : 48.0 kHz
Frame rate                               : 31.250 FPS (1536 SPF)
Compression mode                         : Lossy
Stream size                              : 139 MiB (7%)
Language                                 : English
Service kind                             : Complete Main
Default                                  : Yes
Forced                                   : No
</pre>
</div><div style="text-align: center">
<div class="bbCodeBlock bbCodeVfcHH HiddenContent">
<div class="attribution type">Hidden Content:</div>
<blockquote>You must reply before you can see the hidden data contained here.</blockquote>
</div></div>
<div class="messageTextEndMarker">&nbsp;</div>
</blockquote>
</article>]]></description>
                <author><![CDATA[ilya2129]]></author>
                </item>

                </channel></rss>